<svg width="861" height="567" viewBox="0 0 861 567" fill="none" xmlns="http://www.w3.org/2000/svg">
<rect width="861" height="567" fill="#E1E1E1"/>
<g id="undraw_Dev_focus_re_6iwt 1" clip-path="url(#clip0)">
<g id="hot">
<path id="Vector" d="M651.313 455.04C650.178 445.397 649.879 435.672 650.419 425.977L651.313 409.924C646.389 422.258 647.502 438.493 651.313 455.04Z" fill="#9B9292"/>
<path id="Vector_2" d="M643.333 450.528C640.976 434.37 640.353 417.998 641.475 401.702L643.333 374.733C633.099 395.456 635.412 422.73 643.333 450.528V450.528Z" fill="#BDB4B4"/>
</g>
<path id="Vector_3" d="M686.784 474.893V483.916C686.78 484.633 686.498 485.319 686 485.826C685.502 486.333 684.828 486.619 684.124 486.623H679.69C679.574 486.623 679.458 486.646 679.35 486.691C679.243 486.736 679.145 486.802 679.062 486.886C678.98 486.97 678.915 487.07 678.87 487.179C678.826 487.289 678.803 487.407 678.804 487.525V561.515C678.8 562.232 678.518 562.918 678.02 563.425C677.522 563.932 676.848 564.219 676.143 564.222H622.057C621.351 564.222 620.675 563.936 620.177 563.429C619.678 562.921 619.397 562.233 619.397 561.515V487.525C619.396 487.286 619.302 487.057 619.136 486.888C618.97 486.719 618.745 486.624 618.51 486.623H613.19C612.485 486.622 611.809 486.337 611.31 485.829C610.811 485.322 610.531 484.634 610.53 483.916V474.893C610.53 474.537 610.598 474.185 610.732 473.856C610.865 473.528 611.061 473.229 611.308 472.978C611.555 472.726 611.849 472.527 612.172 472.391C612.495 472.255 612.841 472.185 613.19 472.186H684.124C684.828 472.188 685.504 472.474 686.002 472.981C686.5 473.488 686.781 474.176 686.784 474.893V474.893Z" fill="#010101"/>
<path id="Vector_4" d="M678.883 488.518H619.476V491.225H678.883V488.518Z" fill="#E6E6E6"/>
<path id="Vector_5" d="M678.803 528.35C658.925 536.722 638.829 536.814 618.51 528.35V509.28C638.071 502.594 659.243 502.594 678.803 509.28V528.35Z" fill="#E6E6E6"/>
<path id="Vector_6" d="M393.314 224.926C411.136 224.926 425.585 210.223 425.585 192.086C425.585 173.948 411.136 159.245 393.314 159.245C375.491 159.245 361.043 173.948 361.043 192.086C361.043 210.223 375.491 224.926 393.314 224.926Z" fill="black"/>
<path id="Vector_7" d="M402.304 160.149C407.889 160.15 413.379 161.625 418.235 164.432C423.092 167.238 427.15 171.278 430.013 176.158C432.876 181.038 434.445 186.591 434.568 192.273C434.69 197.955 433.362 203.572 430.713 208.576C433.511 205.013 435.548 200.897 436.696 196.489C437.845 192.081 438.078 187.477 437.381 182.973C436.684 178.468 435.073 174.16 432.65 170.324C430.227 166.488 427.045 163.207 423.308 160.692C419.57 158.176 415.358 156.48 410.941 155.713C406.524 154.945 401.998 155.122 397.652 156.233C393.305 157.344 389.234 159.364 385.697 162.164C382.161 164.965 379.236 168.484 377.11 172.499C380.126 168.645 383.958 165.533 388.321 163.394C392.683 161.256 397.463 160.147 402.304 160.149V160.149Z" fill="black"/>
<path id="Vector_8" d="M333.011 192.015C385.365 192.015 427.807 148.825 427.807 95.5462C427.807 42.2678 385.365 -0.922913 333.011 -0.922913C280.656 -0.922913 238.215 42.2678 238.215 95.5462C238.215 148.825 280.656 192.015 333.011 192.015Z" fill="black"/>
<path id="Vector_9" d="M258.612 35.6926C274.946 16.9985 297.778 5.49373 322.29 3.60652C346.801 1.7193 371.075 9.59727 389.987 25.5777C389.211 24.8279 388.444 24.0719 387.639 23.3432C368.847 6.35731 344.196 -2.33858 319.105 -0.832461C294.014 0.673662 270.538 12.2585 253.839 31.3748C237.139 50.4912 228.584 75.574 230.053 101.108C231.522 126.643 242.896 150.538 261.674 167.54C262.479 168.269 263.307 168.955 264.129 169.651C246.319 152.409 235.787 128.801 234.758 103.807C233.729 78.8134 242.281 54.3904 258.612 35.6926Z" fill="black"/>
<path id="Vector_10" d="M332.207 191.199C365.927 191.199 393.262 163.381 393.262 129.066C393.262 94.7511 365.927 66.9334 332.207 66.9334C298.488 66.9334 271.153 94.7511 271.153 129.066C271.153 163.381 298.488 191.199 332.207 191.199Z" fill="#CACACA"/>
<path id="Vector_11" d="M363.397 208.066L298.06 211.055C298.06 211.055 303.513 245.441 268.165 248.711C232.818 251.981 200.683 242.17 187.83 266.696C174.976 291.223 180.516 378.553 180.516 378.553C180.516 378.553 204.617 466.847 223.897 479.928C243.178 493.008 411.882 475.022 411.882 475.022L482.486 384.3L480.095 314.335C478.846 277.799 446.067 250.368 410.763 257.129C410.07 257.262 409.372 257.405 408.669 257.558C408.669 257.558 400.913 251.659 379.633 240.831C366.62 234.21 363.397 208.066 363.397 208.066Z" fill="#CACACA"/>
<path id="Vector_12" d="M221.571 247.076C221.571 247.076 237.1 275.749 230.673 316.626C224.246 357.503 251.212 443.956 251.212 443.956L270.492 439.051C270.492 439.051 257.638 354.027 260.852 334.406C264.065 314.786 264.952 256.886 248.885 247.076C232.818 237.265 221.571 247.076 221.571 247.076Z" fill="#2F2E41"/>
<path id="Vector_13" d="M407.539 262.11L414.292 443.139L427.146 451.314C427.146 451.314 445.623 252.653 435.983 252.653H416.368C415.207 252.653 414.057 252.886 412.985 253.338C411.912 253.79 410.937 254.453 410.117 255.288C409.296 256.123 408.644 257.115 408.2 258.207C407.756 259.298 407.527 260.468 407.527 261.649C407.527 261.803 407.531 261.957 407.539 262.11Z" fill="#2F2E41"/>
<path id="Vector_14" d="M260.048 439.868C264.485 439.868 268.082 436.208 268.082 431.693C268.082 427.178 264.485 423.518 260.048 423.518C255.612 423.518 252.015 427.178 252.015 431.693C252.015 436.208 255.612 439.868 260.048 439.868Z" fill="#6C63FF"/>
<path id="Vector_15" d="M420.719 448.044C425.156 448.044 428.753 444.384 428.753 439.868C428.753 435.353 425.156 431.693 420.719 431.693C416.283 431.693 412.686 435.353 412.686 439.868C412.686 444.384 416.283 448.044 420.719 448.044Z" fill="#6C63FF"/>
<path id="Vector_16" d="M279.989 51.3996V113.532H294.129L312.124 93.9114L309.714 113.532H372.214L368.358 93.9114L376.07 113.532H386.032V51.3996H279.989Z" fill="black"/>
<path id="Vector_17" d="M270.349 124.978C273.011 124.978 275.169 120.952 275.169 115.985C275.169 111.019 273.011 106.993 270.349 106.993C267.687 106.993 265.529 111.019 265.529 115.985C265.529 120.952 267.687 124.978 270.349 124.978Z" fill="#CACACA"/>
<path id="Vector_18" d="M394.066 124.978C396.728 124.978 398.886 120.952 398.886 115.985C398.886 111.019 396.728 106.993 394.066 106.993C391.404 106.993 389.246 111.019 389.246 115.985C389.246 120.952 391.404 124.978 394.066 124.978Z" fill="#CACACA"/>
<path id="Vector_19" d="M527.795 548.015V553.492C527.798 554.995 527.524 556.486 526.988 557.886C526.75 558.511 526.462 559.114 526.128 559.691C525.071 561.496 523.572 562.991 521.777 564.028C519.981 565.066 517.952 565.611 515.887 565.61H119.946C117.881 565.611 115.852 565.066 114.056 564.028C112.261 562.991 110.761 561.496 109.705 559.691C109.37 559.114 109.083 558.511 108.845 557.886C108.308 556.486 108.035 554.995 108.038 553.492V548.015C108.037 546.424 108.345 544.848 108.943 543.378C109.541 541.908 110.417 540.573 111.522 539.447C112.628 538.322 113.94 537.429 115.384 536.82C116.828 536.211 118.376 535.897 119.939 535.897H142.769V533.343C142.768 533.277 142.781 533.211 142.806 533.15C142.831 533.089 142.867 533.033 142.913 532.986C142.959 532.939 143.014 532.902 143.074 532.877C143.134 532.851 143.198 532.838 143.263 532.838H155.173C155.305 532.838 155.431 532.891 155.524 532.985C155.617 533.079 155.669 533.208 155.67 533.342V535.897H163.109V533.343C163.109 533.277 163.121 533.211 163.146 533.15C163.171 533.089 163.207 533.033 163.253 532.986C163.299 532.939 163.354 532.902 163.414 532.877C163.474 532.851 163.539 532.838 163.604 532.838H175.513C175.645 532.838 175.771 532.891 175.864 532.985C175.957 533.08 176.01 533.208 176.01 533.342V535.897H183.458V533.343C183.458 533.277 183.47 533.211 183.495 533.15C183.52 533.089 183.556 533.033 183.602 532.986C183.648 532.939 183.703 532.902 183.763 532.877C183.823 532.851 183.888 532.838 183.953 532.838H195.862C195.994 532.838 196.12 532.891 196.213 532.985C196.306 533.08 196.359 533.208 196.359 533.342V535.897H203.798V533.343C203.798 533.277 203.81 533.211 203.835 533.15C203.86 533.089 203.897 533.033 203.942 532.986C203.988 532.939 204.043 532.902 204.103 532.877C204.163 532.851 204.228 532.838 204.293 532.838H216.202C216.334 532.838 216.46 532.891 216.553 532.985C216.646 533.08 216.699 533.208 216.699 533.342V535.897H224.138V533.343C224.138 533.277 224.151 533.211 224.175 533.15C224.2 533.089 224.237 533.033 224.283 532.986C224.329 532.939 224.383 532.902 224.443 532.877C224.503 532.851 224.568 532.838 224.633 532.838H236.542C236.674 532.838 236.8 532.891 236.893 532.985C236.986 533.08 237.039 533.208 237.039 533.342V535.897H244.487V533.343C244.487 533.277 244.5 533.211 244.524 533.15C244.549 533.089 244.586 533.033 244.632 532.986C244.678 532.939 244.732 532.902 244.792 532.877C244.852 532.851 244.917 532.838 244.982 532.838H256.891C257.023 532.838 257.149 532.891 257.242 532.985C257.335 533.08 257.388 533.208 257.388 533.342V535.897H264.827V533.343C264.827 533.277 264.84 533.211 264.865 533.15C264.889 533.089 264.926 533.033 264.972 532.986C265.018 532.939 265.072 532.902 265.132 532.877C265.193 532.851 265.257 532.838 265.322 532.838H358.601C358.666 532.838 358.731 532.851 358.791 532.876C358.851 532.901 358.906 532.938 358.952 532.985C358.998 533.032 359.035 533.088 359.06 533.149C359.085 533.21 359.098 533.275 359.098 533.342V535.897H366.546V533.343C366.546 533.277 366.558 533.211 366.583 533.15C366.608 533.089 366.644 533.033 366.69 532.986C366.736 532.939 366.791 532.902 366.851 532.877C366.911 532.851 366.975 532.838 367.041 532.838H378.95C379.081 532.839 379.207 532.893 379.3 532.987C379.393 533.082 379.445 533.21 379.447 533.343V535.897H386.886V533.343C386.886 533.277 386.898 533.211 386.923 533.15C386.948 533.089 386.984 533.033 387.03 532.986C387.076 532.939 387.131 532.902 387.191 532.877C387.251 532.851 387.316 532.838 387.381 532.838H399.29C399.355 532.838 399.42 532.851 399.48 532.876C399.54 532.901 399.595 532.938 399.641 532.985C399.687 533.032 399.724 533.088 399.749 533.149C399.774 533.21 399.787 533.275 399.787 533.342V535.897H407.226V533.343C407.226 533.277 407.239 533.211 407.263 533.15C407.288 533.089 407.325 533.033 407.371 532.986C407.417 532.939 407.471 532.902 407.531 532.877C407.591 532.851 407.656 532.838 407.721 532.838H419.63C419.696 532.838 419.76 532.851 419.82 532.876C419.88 532.901 419.935 532.938 419.981 532.985C420.027 533.032 420.064 533.088 420.089 533.149C420.114 533.21 420.127 533.275 420.127 533.342V535.897H427.575V533.343C427.575 533.277 427.588 533.211 427.612 533.15C427.637 533.089 427.674 533.033 427.72 532.986C427.766 532.939 427.82 532.902 427.88 532.877C427.94 532.851 428.005 532.838 428.07 532.838H439.979C440.11 532.84 440.234 532.894 440.326 532.988C440.417 533.083 440.468 533.211 440.467 533.343V535.897H447.915V533.343C447.915 533.277 447.928 533.211 447.953 533.15C447.977 533.089 448.014 533.033 448.06 532.986C448.106 532.939 448.16 532.902 448.22 532.877C448.281 532.851 448.345 532.838 448.41 532.838H460.32C460.385 532.838 460.449 532.851 460.509 532.876C460.57 532.901 460.624 532.938 460.67 532.985C460.716 533.032 460.753 533.088 460.778 533.149C460.803 533.21 460.816 533.275 460.816 533.342V535.897H468.255V533.343C468.255 533.277 468.268 533.212 468.293 533.15C468.317 533.089 468.354 533.033 468.4 532.986C468.446 532.94 468.5 532.902 468.56 532.877C468.621 532.851 468.685 532.838 468.75 532.838H480.66C480.725 532.838 480.789 532.851 480.849 532.876C480.91 532.901 480.964 532.938 481.01 532.985C481.057 533.032 481.093 533.088 481.118 533.149C481.143 533.21 481.156 533.275 481.156 533.342V535.897H515.887C519.044 535.896 522.073 537.172 524.306 539.443C526.539 541.714 527.794 544.795 527.795 548.009L527.795 548.015Z" fill="#3F3D56"/>
<path id="Vector_20" d="M854 564.198H-7V566.003H854V564.198Z" fill="#3F3D56"/>
<path id="Vector_21" d="M495.913 317.352H133.227C131.916 317.352 130.618 317.614 129.407 318.125C128.196 318.635 127.095 319.384 126.168 320.327C125.241 321.27 124.506 322.39 124.004 323.623C123.503 324.855 123.244 326.176 123.244 327.51V533.159C123.244 535.853 124.296 538.437 126.168 540.342C128.04 542.248 130.579 543.318 133.227 543.318H495.913C498.56 543.318 501.099 542.248 502.971 540.342C504.844 538.437 505.895 535.853 505.895 533.159V327.51C505.895 324.816 504.844 322.232 502.971 320.327C501.099 318.422 498.56 317.352 495.913 317.352Z" fill="#3F3D56"/>
<path id="Vector_22" d="M313 413.003C324.046 413.003 333 402.705 333 390.003C333 377.3 324.046 367.003 313 367.003C301.954 367.003 293 377.3 293 390.003C293 402.705 301.954 413.003 313 413.003Z" fill="#853000"/>
<path id="Vector_23" d="M452.084 240.119L563.986 125.342H616.817V123.537H563.246L562.986 123.805L450.823 238.851L452.084 240.119Z" fill="#3F3D56"/>
<path id="Vector_24" d="M810.997 78.2194H681.345V89.9765H810.997V78.2194Z" fill="black"/>
<path id="Vector_25" d="M665.543 97.4107H638.096V69.4789H665.543V97.4107ZM639.87 95.606H663.77V71.2835H639.87L639.87 95.606Z" fill="#3F3D56"/>
<path id="Vector_26" d="M810.997 117.41H681.345V129.167H810.997V117.41Z" fill="black"/>
<path id="Vector_27" d="M665.543 136.601H638.096V108.669H665.543V136.601ZM639.87 134.796H663.77V110.474H639.87L639.87 134.796Z" fill="#3F3D56"/>
<path id="Vector_28" d="M810.997 156.6H681.345V168.357H810.997V156.6Z" fill="black"/>
<path id="Vector_29" d="M665.543 175.791H638.096V147.859H665.543V175.791ZM639.87 173.986H663.77V149.664H639.87L639.87 173.986Z" fill="#3F3D56"/>
<path id="Star 1" d="M652 112L654.47 119.946H662.462L655.996 124.857L658.466 132.804L652 127.893L645.534 132.804L648.004 124.857L641.538 119.946H649.53L652 112Z" fill="#C4C4C4"/>
<path id="Star 3" d="M652 74L654.47 81.9463H662.462L655.996 86.8574L658.466 94.8037L652 89.8926L645.534 94.8037L648.004 86.8574L641.538 81.9463H649.53L652 74Z" fill="#C4C4C4"/>
<path id="Star 2" d="M652 148L654.47 155.946H662.462L655.996 160.857L658.466 168.804L652 163.893L645.534 168.804L648.004 160.857L641.538 155.946H649.53L652 148Z" fill="#C4C4C4"/>
</g>
<defs>
<clipPath id="clip0">
<rect width="861" height="567" fill="white"/>
</clipPath>
</defs>
</svg>
